<svg width="166" height="153" viewBox="0 0 166 153" fill="none" xmlns="http://www.w3.org/2000/svg">
<g clip-path="url(#clip0_2_38)">
<path d="M83.463 80.1493L67.1461 90.3452C66.7855 90.5706 66.5267 90.9261 66.4268 91.3335C66.3268 91.741 66.3938 92.1671 66.6131 92.518L76.5341 108.395C76.7534 108.746 77.1069 108.993 77.517 109.082C77.927 109.17 78.36 109.094 78.7206 108.868L95.0375 98.6724C95.3981 98.447 95.6568 98.0915 95.7568 97.6841C95.8568 97.2766 95.7897 96.8505 95.5705 96.4996L85.6495 80.6227C85.4302 80.2718 85.0767 80.0248 84.6666 79.936C84.2566 79.8472 83.8236 79.924 83.463 80.1493ZM94.2107 97.3493L77.8938 107.545L67.9729 91.6683L84.2897 81.4724L94.2107 97.3493Z" fill="#B6B6B6" fill-opacity="0.35"/>
<path d="M81.195 99.1079C81.3645 99.1108 81.532 99.0707 81.6819 98.9915C81.8319 98.9123 81.9593 98.7965 82.0525 98.6549L86.1742 92.4C86.2826 92.2376 86.3418 92.0474 86.3447 91.8522C86.3477 91.657 86.2942 91.4652 86.1908 91.2996C86.0873 91.1341 85.9383 91.0019 85.7616 90.919C85.5849 90.8361 85.388 90.8059 85.1945 90.8321L77.7658 91.7947C77.5956 91.817 77.4338 91.882 77.2956 91.9839C77.1574 92.0857 77.0473 92.221 76.9756 92.377C76.904 92.533 76.8731 92.7046 76.8859 92.8758C76.8987 93.047 76.9547 93.2122 77.0488 93.3558L80.3558 98.6481C80.4465 98.7884 80.5707 98.9039 80.7172 98.9842C80.8637 99.0644 81.0279 99.107 81.195 99.1079ZM78.3015 93.0053L84.8612 92.1534L81.2117 97.6625L78.3015 93.0053Z" fill="#B6B6B6" fill-opacity="0.35"/>
<path d="M70.1859 91.2053L71.509 90.3785L72.7491 92.3631L71.4261 93.1899L70.1859 91.2053Z" fill="#B6B6B6" fill-opacity="0.35"/>
<path d="M74.1552 88.725L75.4782 87.8982L76.7184 89.8828L75.3953 90.7096L74.1552 88.725Z" fill="#B6B6B6" fill-opacity="0.35"/>
<path d="M78.1244 86.2448L79.4475 85.418L80.6876 87.4026L79.3645 88.2294L78.1244 86.2448Z" fill="#B6B6B6" fill-opacity="0.35"/>
<path d="M82.0936 83.7645L83.4167 82.9377L84.6568 84.9223L83.3337 85.7491L82.0936 83.7645Z" fill="#B6B6B6" fill-opacity="0.35"/>
<path d="M78.0401 103.774L79.3631 102.948L80.6033 104.932L79.2802 105.759L78.0401 103.774Z" fill="#B6B6B6" fill-opacity="0.35"/>
<path d="M82.0093 101.294L83.3324 100.467L84.5725 102.452L83.2494 103.279L82.0093 101.294Z" fill="#B6B6B6" fill-opacity="0.35"/>
<path d="M85.9785 98.814L87.3016 97.9872L88.5417 99.9718L87.2186 100.799L85.9785 98.814Z" fill="#B6B6B6" fill-opacity="0.35"/>
<path d="M89.9477 96.3337L91.2708 95.507L92.5109 97.4916L91.1879 98.3184L89.9477 96.3337Z" fill="#B6B6B6" fill-opacity="0.35"/>
</g>
<g clip-path="url(#clip1_2_38)">
<path d="M34.4827 17.6733L17.1571 6.84705C16.5772 6.48468 15.8117 6.66354 15.4474 7.24654L5.61236 22.9859C5.24806 23.5689 5.42285 24.3353 6.00277 24.6977L23.3284 35.5239C23.9083 35.8863 24.6737 35.7074 25.038 35.1244L34.8731 19.3851C35.2374 18.8021 35.0626 18.0357 34.4827 17.6733Z" stroke="#B6B6B6" stroke-opacity="0.35" stroke-width="2" stroke-linecap="round" stroke-linejoin="round"/>
<path d="M10.0974 22.8538C20.673 15.3947 22.6724 25.1371 23.908 31.6179C24.0032 32.1176 25.6535 31.6822 25.6535 31.6822" stroke="#B6B6B6" stroke-opacity="0.35" stroke-linecap="round" stroke-linejoin="round"/>
<path d="M27.5776 21.8146C28.4121 22.3361 29.5113 22.0823 30.0327 21.2478C30.5542 20.4133 30.3004 19.3141 29.4659 18.7926C28.6314 18.2712 27.5322 18.5249 27.0107 19.3595C26.4893 20.194 26.7431 21.2932 27.5776 21.8146Z" stroke="#B6B6B6" stroke-opacity="0.35" stroke-linecap="round" stroke-linejoin="round"/>
</g>
<g clip-path="url(#clip2_2_38)">
<path d="M135.898 107.696C136.179 107.246 136.627 106.927 137.144 106.807C137.661 106.688 138.204 106.779 138.654 107.06L162.399 121.898C162.849 122.179 163.168 122.627 163.288 123.144C163.407 123.661 163.316 124.204 163.035 124.654L148.197 148.399C147.916 148.849 147.468 149.168 146.951 149.288C146.434 149.407 145.891 149.316 145.441 149.035L121.696 134.197C121.246 133.916 120.927 133.468 120.807 132.951C120.688 132.434 120.779 131.891 121.06 131.441L135.898 107.696ZM142.682 111.935L136.323 122.112L149.892 130.591L156.251 120.414L142.682 111.935ZM147.772 133.983L134.203 125.504L127.844 135.681L141.413 144.16L147.772 133.983ZM137.594 108.756L135.474 112.148L138.866 114.268L140.986 110.876L137.594 108.756ZM137.806 115.964L134.414 113.844L132.294 117.236L135.687 119.356L137.806 115.964ZM131.235 118.933L129.115 122.325L132.507 124.444L134.627 121.052L131.235 118.933ZM131.447 126.14L128.055 124.021L125.935 127.413L129.328 129.533L131.447 126.14ZM124.876 129.109L122.756 132.501L126.148 134.621L128.268 131.229L124.876 129.109ZM161.339 123.594L157.947 121.474L155.827 124.866L159.219 126.986L161.339 123.594ZM154.767 126.562L152.648 129.954L156.04 132.074L158.16 128.682L154.767 126.562ZM154.98 133.77L151.588 131.651L149.468 135.043L152.86 137.162L154.98 133.77ZM148.408 136.739L146.289 140.131L149.681 142.251L151.8 138.859L148.408 136.739ZM148.621 143.947L145.229 141.827L143.109 145.219L146.501 147.339L148.621 143.947Z" fill="#B6B6B6" fill-opacity="0.35"/>
</g>
<path d="M30.7925 118.586L26.3839 120.278L24.2162 117.771C24.0672 117.599 23.8681 117.478 23.6462 117.424C23.4243 117.369 23.1903 117.384 22.9763 117.467L13.0311 121.284C12.5935 121.452 12.3059 121.875 12.3163 122.339L12.3802 125.654L7.97162 127.346C6.53883 127.896 5.81891 129.489 6.36287 130.907L11.9747 145.526C12.5186 146.943 14.1197 147.645 15.5525 147.095L38.3733 138.335C39.8061 137.785 40.526 136.192 39.9821 134.775L34.3703 120.155C33.8263 118.738 32.2253 118.036 30.7925 118.586ZM37.6481 135.671C37.7023 135.812 37.6299 135.972 37.4873 136.027L14.6664 144.787C14.5238 144.842 14.3628 144.771 14.3086 144.63L8.69682 130.011C8.64267 129.87 8.71506 129.709 8.85769 129.655L14.9098 127.331L14.8758 125.586L14.8281 123.243L22.9483 120.126L24.4807 121.899L25.6232 123.219L31.6785 120.894C31.8212 120.84 31.9822 120.91 32.0363 121.051L37.6481 135.671ZM21.0557 127.326C18.1902 128.426 16.7503 131.613 17.8382 134.447C18.9261 137.281 22.1283 138.685 24.9939 137.585C27.8594 136.485 29.2993 133.299 28.2114 130.465C27.1235 127.631 23.9213 126.226 21.0557 127.326ZM24.2062 135.534C22.4882 136.193 20.5651 135.35 19.9129 133.65C19.2606 131.951 20.1253 130.038 21.8434 129.378C23.5614 128.719 25.4845 129.562 26.1367 131.261C26.789 132.961 25.9243 134.874 24.2062 135.534Z" fill="#B6B6B6" fill-opacity="0.35"/>
<g clip-path="url(#clip3_2_38)">
<path d="M153.942 16.7096C150.982 15.3381 147.686 14.8639 144.46 15.3455C141.234 15.8272 138.22 17.2435 135.79 19.4196C133.53 21.772 132.01 24.7349 131.416 27.9422C130.822 31.1494 131.181 34.4604 132.448 37.466C132.543 37.6792 132.711 37.8522 132.92 37.9551C135.88 39.3266 139.176 39.8008 142.402 39.3191C145.628 38.8375 148.642 37.4211 151.072 35.2451C153.332 32.8927 154.853 29.9297 155.446 26.7225C156.04 23.5152 155.681 20.2042 154.414 17.1987C154.319 16.9855 154.152 16.8124 153.942 16.7096ZM149.683 33.8064C145.87 37.4881 139.112 38.5512 134.13 36.3143C132.068 31.2571 133.367 24.54 137.179 20.8583C140.992 17.1766 147.75 16.1135 152.732 18.3504C154.794 23.4076 153.495 30.1247 149.683 33.8064Z" fill="#B6B6B6" fill-opacity="0.35"/>
<path d="M139.316 23.168C138.462 23.9923 137.872 25.0513 137.621 26.2109C137.369 27.3706 137.467 28.5789 137.901 29.683C138.336 30.7871 139.089 31.7375 140.064 32.4139C141.039 33.0903 142.193 33.4624 143.379 33.4831C144.566 33.5038 145.732 33.1722 146.73 32.5302C147.728 31.8883 148.513 30.9648 148.986 29.8765C149.46 28.7882 149.599 27.5841 149.388 26.4163C149.177 25.2486 148.624 24.1697 147.8 23.316C146.695 22.1714 145.18 21.5127 143.589 21.4849C141.998 21.4571 140.461 22.0625 139.316 23.168ZM146.263 30.3614C145.694 30.9109 144.974 31.2794 144.196 31.4202C143.417 31.5609 142.615 31.4677 141.889 31.1522C141.163 30.8368 140.548 30.3133 140.12 29.6479C139.692 28.9825 139.471 28.2052 139.485 27.4142C139.498 26.6232 139.746 25.854 140.197 25.204C140.648 24.554 141.282 24.0523 142.018 23.7623C142.754 23.4724 143.56 23.4072 144.333 23.5751C145.106 23.7429 145.812 24.1363 146.361 24.7054C147.098 25.4685 147.502 26.4931 147.483 27.5538C147.465 28.6145 147.026 29.6244 146.263 30.3614Z" fill="#B6B6B6" fill-opacity="0.35"/>
</g>
<g clip-path="url(#clip4_2_38)">
<path d="M83.3621 147.91C79.9572 147.187 76.9697 145.185 75.0568 142.346C73.1438 139.507 72.4622 136.063 73.1618 132.771C73.8614 129.48 75.885 126.611 78.7873 124.795C81.6896 122.979 85.233 122.366 88.6379 123.09C92.0428 123.813 95.0303 125.815 96.9432 128.654C98.8562 131.493 99.5378 134.937 98.8382 138.229C98.1386 141.52 96.115 144.389 93.2127 146.205C90.3104 148.021 86.767 148.634 83.3621 147.91ZM82.9853 149.683C86.8766 150.51 90.9261 149.809 94.2431 147.734C97.56 145.659 99.8727 142.38 100.672 138.619C101.472 134.857 100.693 130.921 98.5065 127.676C96.3203 124.432 92.906 122.144 89.0147 121.317C85.1234 120.49 81.0738 121.191 77.7569 123.266C74.44 125.341 72.1273 128.62 71.3278 132.381C70.5282 136.143 71.3072 140.079 73.4934 143.324C75.6796 146.568 79.094 148.856 82.9853 149.683Z" fill="#B6B6B6" fill-opacity="0.35"/>
<path d="M91.3208 140.363C91.5034 140.36 91.6834 140.41 91.8389 140.504C91.9943 140.599 92.1183 140.736 92.1956 140.897C92.273 141.059 92.3003 141.238 92.2741 141.413C92.248 141.588 92.1696 141.75 92.0485 141.881C91.0662 142.94 89.81 143.726 88.4062 144.16C87.0024 144.593 85.5006 144.659 84.0516 144.351C82.6026 144.043 81.2573 143.372 80.1512 142.405C79.0451 141.438 78.2171 140.209 77.7505 138.842C77.6931 138.673 77.6878 138.493 77.735 138.322C77.7822 138.152 77.88 137.999 78.0163 137.883C78.1526 137.768 78.3214 137.693 78.5021 137.67C78.6827 137.646 78.8672 137.674 79.0329 137.751L79.042 137.753L79.0713 137.768L79.1886 137.821L79.63 138.017C80.007 138.182 80.5338 138.409 81.1381 138.651C82.3623 139.141 83.8383 139.673 84.9937 139.919C86.1491 140.164 87.7159 140.279 89.0317 140.328C89.7377 140.355 90.444 140.366 91.1501 140.364L91.2786 140.363L91.3113 140.363L91.3212 140.361L91.3208 140.363ZM81.3445 128.147C83.2805 125.92 88.7625 129.502 81.7964 134.607C74.1521 130.024 79.1061 126.071 81.3445 128.147ZM93.2437 130.677C96.1332 129.69 99.0508 135.317 90.2036 136.394C85.9179 128.897 92.3827 127.855 93.2437 130.677Z" fill="#B6B6B6" fill-opacity="0.35"/>
</g>
<path d="M126.439 68.8022L126.966 69.8174C127.344 70.5465 127.904 71.1656 128.591 71.6149C129.279 72.0642 130.071 72.3285 130.89 72.382L131.194 72.4017L130.947 72.5792C130.28 73.0589 129.749 73.7026 129.404 74.4479C129.059 75.1932 128.912 76.0149 128.978 76.8336L129.069 77.9737L128.542 76.9585C128.164 76.2294 127.605 75.6102 126.917 75.1609C126.23 74.7116 125.438 74.4474 124.618 74.3938L124.315 74.3741L124.562 74.1966C125.228 73.7169 125.76 73.0733 126.105 72.328C126.45 71.5826 126.596 70.7609 126.53 69.9423L126.439 68.8022ZM134.481 83.8661L135.164 85.2533C135.342 85.6153 135.609 85.9262 135.939 86.1571C136.27 86.3879 136.654 86.5312 137.055 86.5734L137.76 86.6479L137.202 87.0847C136.884 87.3328 136.634 87.6575 136.476 88.0284C136.317 88.3992 136.255 88.8042 136.296 89.2054L136.453 90.7447L135.77 89.3574C135.592 88.9955 135.326 88.6846 134.995 88.4537C134.664 88.2228 134.28 88.0796 133.879 88.0374L133.174 87.9629L133.733 87.5261C134.051 87.2779 134.3 86.9533 134.459 86.5824C134.617 86.2115 134.679 85.8066 134.638 85.4054L134.481 83.8661ZM139.379 66.3325L140.889 69.1924C141.658 70.6505 142.793 71.8842 144.181 72.7733C145.57 73.6624 147.165 74.1766 148.811 74.2656L150.362 74.3493L149.091 75.2424C147.742 76.1903 146.662 77.4716 145.956 78.9614C145.249 80.4512 144.941 82.0986 145.061 83.743L145.296 86.9684L143.786 84.1085C143.017 82.6504 141.882 81.4167 140.494 80.5276C139.105 79.6385 137.51 79.1243 135.864 79.0353L134.312 78.9516L135.584 78.0585C136.933 77.1106 138.013 75.8293 138.719 74.3395C139.426 72.8497 139.734 71.2023 139.614 69.558L139.379 66.3325Z" stroke="#B6B6B6" stroke-opacity="0.35" stroke-width="2" stroke-linecap="round" stroke-linejoin="round"/>
<path d="M93.8519 60.6142H86.8712C89.9127 58.6233 92.1601 55.5582 93.1998 51.9828C94.2395 48.4074 94.0016 44.5622 92.5299 41.1545C91.0582 37.7469 88.4516 35.0059 85.1898 33.4359C81.9279 31.8659 78.23 31.5724 74.7765 32.6095C71.3229 33.6465 68.3459 35.9443 66.3931 39.0802C64.4403 42.2161 63.643 45.9791 64.1479 49.6771C64.6529 53.375 66.426 56.7592 69.1412 59.2071C71.8565 61.6549 75.3311 63.0018 78.926 63H93.8519C94.1564 63 94.4484 62.8743 94.6637 62.6506C94.879 62.4269 95 62.1235 95 61.8071C95 61.4907 94.879 61.1873 94.6637 60.9636C94.4484 60.7399 94.1564 60.6142 93.8519 60.6142ZM66.2965 47.4925C66.2965 44.8973 67.0372 42.3604 68.425 40.2025C69.8127 38.0447 71.7852 36.3628 74.0929 35.3697C76.4007 34.3765 78.94 34.1167 81.3899 34.623C83.8398 35.1293 86.0902 36.379 87.8565 38.2141C89.6227 40.0492 90.8256 42.3873 91.3129 44.9326C91.8002 47.478 91.5501 50.1163 90.5942 52.514C89.6383 54.9117 88.0196 56.961 85.9426 58.4028C83.8657 59.8447 81.4239 60.6142 78.926 60.6142C75.5776 60.6103 72.3675 59.2266 69.9998 56.7666C67.6321 54.3067 66.3003 50.9714 66.2965 47.4925ZM78.926 43.9139C79.6073 43.9139 80.2732 43.704 80.8397 43.3108C81.4061 42.9176 81.8476 42.3587 82.1083 41.7047C82.369 41.0508 82.4372 40.3313 82.3043 39.6371C82.1714 38.9429 81.8433 38.3053 81.3616 37.8048C80.8799 37.3043 80.2662 36.9635 79.598 36.8254C78.9299 36.6873 78.2373 36.7582 77.6079 37.029C76.9785 37.2999 76.4406 37.7586 76.0621 38.3471C75.6836 38.9356 75.4816 39.6275 75.4816 40.3353C75.4816 41.2844 75.8445 42.1946 76.4905 42.8657C77.1364 43.5369 78.0125 43.9139 78.926 43.9139ZM78.926 39.1424C79.1531 39.1424 79.3751 39.2123 79.5639 39.3434C79.7527 39.4745 79.8999 39.6608 79.9868 39.8788C80.0737 40.0967 80.0964 40.3366 80.0521 40.568C80.0078 40.7994 79.8985 41.0119 79.7379 41.1788C79.5773 41.3456 79.3727 41.4592 79.15 41.5052C78.9273 41.5513 78.6965 41.5276 78.4867 41.4373C78.2769 41.3471 78.0975 41.1942 77.9714 40.998C77.8452 40.8018 77.7779 40.5712 77.7779 40.3353C77.7779 40.0189 77.8989 39.7155 78.1142 39.4918C78.3295 39.2681 78.6215 39.1424 78.926 39.1424ZM82.3705 54.6498C82.3705 53.942 82.1684 53.2501 81.79 52.6616C81.4115 52.0731 80.8735 51.6145 80.2442 51.3436C79.6148 51.0727 78.9222 51.0019 78.2541 51.14C77.5859 51.278 76.9722 51.6189 76.4905 52.1193C76.0087 52.6198 75.6807 53.2575 75.5478 53.9517C75.4149 54.6459 75.4831 55.3654 75.7438 56.0193C76.0045 56.6732 76.446 57.2321 77.0124 57.6254C77.5788 58.0186 78.2448 58.2285 78.926 58.2285C79.8396 58.2285 80.7157 57.8514 81.3616 57.1803C82.0076 56.5092 82.3705 55.5989 82.3705 54.6498ZM77.7779 54.6498C77.7779 54.4139 77.8452 54.1833 77.9714 53.9871C78.0975 53.7909 78.2769 53.638 78.4867 53.5478C78.6965 53.4575 78.9273 53.4338 79.15 53.4799C79.3727 53.5259 79.5773 53.6395 79.7379 53.8063C79.8985 53.9732 80.0078 54.1857 80.0521 54.4171C80.0964 54.6485 80.0737 54.8884 79.9868 55.1063C79.8999 55.3243 79.7527 55.5106 79.5639 55.6417C79.3751 55.7728 79.1531 55.8427 78.926 55.8427C78.6215 55.8427 78.3295 55.717 78.1142 55.4933C77.8989 55.2696 77.7779 54.9662 77.7779 54.6498ZM85.8149 51.0712C86.4961 51.0712 87.1621 50.8613 87.7285 50.4681C88.2949 50.0749 88.7364 49.5159 88.9971 48.862C89.2578 48.2081 89.326 47.4886 89.1931 46.7944C89.0602 46.1002 88.7322 45.4625 88.2504 44.9621C87.7687 44.4616 87.155 44.1207 86.4869 43.9827C85.8187 43.8446 85.1261 43.9155 84.4968 44.1863C83.8674 44.4572 83.3294 44.9159 82.9509 45.5044C82.5725 46.0929 82.3705 46.7848 82.3705 47.4925C82.3705 48.4417 82.7333 49.3519 83.3793 50.023C84.0253 50.6942 84.9014 51.0712 85.8149 51.0712ZM85.8149 46.2997C86.042 46.2997 86.2639 46.3696 86.4527 46.5007C86.6416 46.6318 86.7887 46.8181 86.8756 47.0361C86.9625 47.254 86.9853 47.4939 86.941 47.7253C86.8967 47.9567 86.7873 48.1692 86.6267 48.336C86.4662 48.5029 86.2616 48.6165 86.0389 48.6625C85.8162 48.7085 85.5853 48.6849 85.3755 48.5946C85.1657 48.5043 84.9864 48.3514 84.8602 48.1553C84.7341 47.9591 84.6667 47.7285 84.6667 47.4925C84.6667 47.1762 84.7877 46.8728 85.003 46.6491C85.2183 46.4253 85.5104 46.2997 85.8149 46.2997ZM72.0372 43.9139C71.3559 43.9139 70.69 44.1238 70.1236 44.517C69.5571 44.9102 69.1157 45.4691 68.855 46.1231C68.5943 46.777 68.5261 47.4965 68.659 48.1907C68.7919 48.8849 69.1199 49.5225 69.6016 50.023C70.0833 50.5235 70.6971 50.8643 71.3652 51.0024C72.0334 51.1405 72.7259 51.0696 73.3553 50.7988C73.9847 50.5279 74.5226 50.0692 74.9011 49.4807C75.2796 48.8922 75.4816 48.2003 75.4816 47.4925C75.4816 46.5434 75.1187 45.6332 74.4728 44.9621C73.8268 44.2909 72.9507 43.9139 72.0372 43.9139ZM72.0372 48.6854C71.8101 48.6854 71.5881 48.6155 71.3993 48.4844C71.2105 48.3533 71.0633 48.167 70.9764 47.949C70.8895 47.7311 70.8668 47.4912 70.9111 47.2598C70.9554 47.0284 71.0648 46.8159 71.2253 46.6491C71.3859 46.4822 71.5905 46.3686 71.8132 46.3226C72.0359 46.2766 72.2668 46.3002 72.4766 46.3905C72.6864 46.4808 72.8657 46.6336 72.9918 46.8298C73.118 47.026 73.1853 47.2566 73.1853 47.4925C73.1853 47.8089 73.0644 48.1123 72.849 48.336C72.6337 48.5598 72.3417 48.6854 72.0372 48.6854Z" fill="#B6B6B6" fill-opacity="0.35"/>
<path d="M38.357 72.0976C36.5606 69.2227 32.7738 68.3491 29.8996 70.1451C27.7171 71.5089 26.6914 74.0197 27.1081 76.408C24.8033 73.7934 20.8861 73.1457 17.8328 75.0536C14.436 77.1762 13.4027 81.6518 15.5253 85.0487C17.5798 88.3365 21.8338 89.4011 25.185 87.5436C25.1842 87.7477 25.234 87.9511 25.3431 88.1257L27.2646 91.2008L22.9176 91.6148L27.3532 98.7132L29.6522 94.9516C30.0054 95.286 30.5797 95.3802 31.0204 95.1048L33.8594 93.3308L35.0425 95.2242L39.3016 92.5628L38.1187 90.6698L40.4847 89.1914C41.0036 88.8671 41.1482 88.1474 40.8399 87.6541L38.1786 83.395L40.8401 82.3896L38.7703 79.0772L36.6999 81.0287C36.5929 80.8574 36.4359 80.7267 36.257 80.6374C36.3057 80.6091 36.3558 80.586 36.4043 80.5557C39.2789 78.7595 40.1535 74.9726 38.357 72.0976ZM37.8558 73.4648C38.0426 73.781 38.0984 74.1576 38.0113 74.5144C37.9243 74.8711 37.7013 75.1797 37.3899 75.3743C37.0785 75.5688 36.7033 75.634 36.3446 75.5559C35.9858 75.4777 35.6717 75.2625 35.4694 74.956C35.2827 74.6399 35.2269 74.2632 35.3139 73.9065C35.401 73.5498 35.624 73.2412 35.9354 73.0466C36.2468 72.852 36.6219 72.7868 36.9807 72.865C37.3395 72.9431 37.6535 73.1584 37.8558 73.4648ZM32.6058 70.3724C32.7624 70.2746 32.9368 70.2085 33.1189 70.178C33.3011 70.1475 33.4874 70.1532 33.6674 70.1948C33.8473 70.2363 34.0173 70.3129 34.1677 70.4201C34.3181 70.5274 34.4458 70.6632 34.5437 70.8198C34.6415 70.9764 34.7076 71.1508 34.7381 71.3329C34.7686 71.5151 34.7629 71.7015 34.7213 71.8814C34.6798 72.0614 34.6032 72.2314 34.496 72.3817C34.3887 72.5321 34.2529 72.6598 34.0963 72.7577C33.78 72.9553 33.3982 73.0192 33.0348 72.9353C32.6715 72.8514 32.3563 72.6266 32.1587 72.3104C32.0607 72.1538 31.9946 71.9794 31.964 71.7973C31.9334 71.6151 31.9391 71.4287 31.9806 71.2487C32.0221 71.0688 32.0987 70.8987 32.206 70.7484C32.3133 70.598 32.4491 70.4702 32.6058 70.3724ZM34.3316 74.864C34.3811 74.9431 34.3971 75.0387 34.3761 75.1296C34.3551 75.2205 34.2988 75.2994 34.2197 75.3488C34.1406 75.3983 34.045 75.4143 33.9541 75.3933C33.8632 75.3723 33.7843 75.316 33.7348 75.2369C33.6854 75.1578 33.6694 75.0622 33.6904 74.9713C33.7114 74.8804 33.7676 74.8015 33.8468 74.7521C33.9259 74.7026 34.0215 74.6866 34.1124 74.7076C34.2033 74.7286 34.2822 74.7849 34.3316 74.864ZM33.019 74.0906C33.0582 74.0661 33.1019 74.0496 33.1475 74.042C33.193 74.0344 33.2397 74.0359 33.2847 74.0463C33.3297 74.0567 33.3722 74.0759 33.4098 74.1027C33.4474 74.1296 33.4794 74.1636 33.5038 74.2028C33.5283 74.242 33.5448 74.2856 33.5524 74.3312C33.56 74.3768 33.5585 74.4234 33.5481 74.4684C33.5377 74.5134 33.5185 74.556 33.4916 74.5936C33.4648 74.6312 33.4308 74.6631 33.3916 74.6876C33.3124 74.737 33.2169 74.7529 33.1259 74.7319C33.035 74.7108 32.9562 74.6545 32.9068 74.5753C32.8574 74.4962 32.8415 74.4006 32.8625 74.3097C32.8836 74.2188 32.9399 74.14 33.019 74.0906ZM33.4606 75.8232C33.5197 75.7863 33.5884 75.7677 33.6581 75.7698C33.7278 75.772 33.7953 75.7948 33.852 75.8353C33.9087 75.8758 33.9522 75.9322 33.9768 75.9975C34.0014 76.0627 34.0062 76.1337 33.9904 76.2016C33.9746 76.2696 33.9391 76.3313 33.8882 76.3789C33.8374 76.4266 33.7735 76.4582 33.7047 76.4695C33.636 76.4809 33.5654 76.4716 33.5019 76.4429C33.4384 76.4141 33.3848 76.3671 33.348 76.3079C33.2988 76.2287 33.283 76.1332 33.3041 76.0423C33.3252 75.9514 33.3814 75.8726 33.4606 75.8232ZM32.5817 74.7788C32.6062 74.8178 32.6228 74.8614 32.6306 74.9069C32.6383 74.9524 32.637 74.9989 32.6267 75.0439C32.6164 75.0889 32.5974 75.1315 32.5707 75.1691C32.544 75.2067 32.5101 75.2387 32.4711 75.2633C32.432 75.2878 32.3885 75.3045 32.343 75.3122C32.2975 75.3199 32.2509 75.3186 32.2059 75.3083C32.1609 75.2981 32.1184 75.279 32.0807 75.2523C32.0431 75.2256 32.0111 75.1918 31.9865 75.1527C31.937 75.0738 31.9207 74.9784 31.9415 74.8875C31.9622 74.7967 32.0182 74.7178 32.0971 74.6682C32.176 74.6186 32.2714 74.6024 32.3623 74.6231C32.4532 74.6439 32.5321 74.6999 32.5817 74.7788ZM32.8126 75.8132C32.8371 75.8523 32.8537 75.8959 32.8613 75.9415C32.869 75.987 32.8676 76.0336 32.8572 76.0786C32.8468 76.1236 32.8277 76.1661 32.8009 76.2037C32.7741 76.2413 32.7402 76.2733 32.701 76.2978C32.6619 76.3223 32.6183 76.3388 32.5728 76.3465C32.5272 76.3541 32.4806 76.3527 32.4356 76.3424C32.3906 76.332 32.3481 76.3129 32.3105 76.2861C32.2729 76.2593 32.2409 76.2254 32.2164 76.1862C32.167 76.1072 32.1509 76.0117 32.1718 75.9208C32.1928 75.8299 32.2489 75.7511 32.328 75.7016C32.4071 75.6522 32.5025 75.6361 32.5934 75.657C32.6843 75.678 32.7631 75.7341 32.8126 75.8132ZM21.0314 75.3216C21.2166 75.1986 21.4245 75.1139 21.6429 75.0726C21.8613 75.0313 22.0858 75.0342 22.303 75.0812C22.5203 75.1281 22.7259 75.2182 22.9078 75.346C23.0897 75.4738 23.244 75.6368 23.3618 75.8253C23.4796 76.0138 23.5584 76.224 23.5936 76.4435C23.6287 76.6629 23.6195 76.8872 23.5665 77.1031C23.5134 77.319 23.4176 77.522 23.2848 77.7002C23.1519 77.8784 22.9847 78.0281 22.7929 78.1406C22.4195 78.3596 21.9754 78.4243 21.5551 78.321C21.1347 78.2177 20.7711 77.9546 20.5417 77.5875C20.3124 77.2203 20.2352 76.7782 20.3266 76.3551C20.4181 75.932 20.6709 75.5612 21.0314 75.3216ZM23.0711 80.6304C23.1236 80.7237 23.1381 80.8337 23.1116 80.9374C23.0852 81.0411 23.0197 81.1307 22.929 81.1874C22.8382 81.2441 22.729 81.2637 22.6242 81.242C22.5193 81.2203 22.4269 81.1591 22.366 81.071C22.3076 80.9775 22.2887 80.8646 22.3135 80.7572C22.3383 80.6498 22.4048 80.5566 22.4983 80.4982C22.5918 80.4398 22.7046 80.4209 22.8121 80.4457C22.9195 80.4705 23.0126 80.5369 23.0711 80.6304ZM21.5197 79.7165C21.6133 79.6582 21.7263 79.6395 21.8337 79.6645C21.9412 79.6895 22.0343 79.7561 22.0926 79.8497C22.1509 79.9434 22.1696 80.0563 22.1446 80.1638C22.1196 80.2712 22.053 80.3643 21.9594 80.4226C21.8657 80.4809 21.7528 80.4996 21.6453 80.4747C21.5379 80.4497 21.4448 80.383 21.3865 80.2894C21.3282 80.1958 21.3095 80.0828 21.3344 79.9754C21.3594 79.8679 21.4261 79.7748 21.5197 79.7165ZM22.0416 81.7634C22.0879 81.7346 22.1395 81.7152 22.1933 81.7063C22.2471 81.6975 22.3022 81.6993 22.3553 81.7117C22.4084 81.7241 22.4586 81.7469 22.5029 81.7787C22.5473 81.8105 22.5849 81.8507 22.6137 81.897C22.6425 81.9434 22.6619 81.9949 22.6707 82.0488C22.6796 82.1026 22.6778 82.1577 22.6654 82.2108C22.6529 82.2639 22.6302 82.3141 22.5984 82.3584C22.5666 82.4027 22.5264 82.4404 22.48 82.4692C22.3864 82.5273 22.2736 82.5459 22.1663 82.5208C22.059 82.4958 21.966 82.4291 21.9079 82.3355C21.8497 82.2419 21.8312 82.129 21.8562 82.0217C21.8813 81.9144 21.948 81.8215 22.0416 81.7634ZM21.0027 80.5297C21.0337 80.5761 21.0551 80.6282 21.0655 80.683C21.076 80.7378 21.0753 80.7941 21.0635 80.8487C21.0518 80.9032 21.0292 80.9548 20.9971 81.0004C20.965 81.046 20.9241 81.0847 20.8767 81.1142C20.8294 81.1437 20.7766 81.1634 20.7215 81.172C20.6664 81.1807 20.6101 81.1782 20.556 81.1647C20.5019 81.1512 20.451 81.127 20.4065 81.0934C20.3619 81.0598 20.3245 81.0177 20.2966 80.9694C20.2425 80.8759 20.2269 80.765 20.2531 80.6602C20.2792 80.5554 20.3451 80.4649 20.4368 80.4078C20.5285 80.3507 20.6388 80.3315 20.7444 80.3542C20.85 80.377 20.9427 80.4399 21.0027 80.5297ZM21.2766 81.7517C21.3309 81.8451 21.3467 81.956 21.3207 82.0608C21.2947 82.1657 21.2289 82.2563 21.1373 82.3135C21.0457 82.3708 20.9354 82.3902 20.8298 82.3676C20.7241 82.345 20.6314 82.2822 20.5712 82.1925C20.5128 82.0989 20.4939 81.986 20.5187 81.8785C20.5435 81.7711 20.61 81.6778 20.7035 81.6194C20.7971 81.5609 20.91 81.542 21.0175 81.5669C21.125 81.5917 21.2182 81.6582 21.2766 81.7517ZM19.5281 85.7533C19.1542 85.9869 18.7029 86.0624 18.2733 85.9633C17.8437 85.8641 17.4712 85.5983 17.2375 85.2245C17.0039 84.8506 16.9284 84.3992 17.0276 83.9697C17.1267 83.5401 17.3925 83.1676 17.7664 82.9339C18.1402 82.7003 18.5916 82.6248 19.0211 82.724C19.4507 82.8231 19.8233 83.0889 20.0569 83.4627C20.2905 83.8366 20.366 84.288 20.2669 84.7175C20.1677 85.1471 19.9019 85.5197 19.5281 85.7533ZM16.1431 80.3363C15.9095 79.9623 15.834 79.5109 15.9331 79.0813C16.0323 78.6517 16.2981 78.2791 16.672 78.0454C17.0459 77.8118 17.4974 77.7362 17.927 77.8354C18.3566 77.9346 18.7292 78.2004 18.9629 78.5743C19.1965 78.9482 19.2721 79.3996 19.1729 79.8293C19.0737 80.2589 18.8079 80.6315 18.434 80.8651C18.0601 81.0988 17.6086 81.1743 17.179 81.0751C16.7494 80.976 16.3768 80.7102 16.1431 80.3363ZM24.879 86.3298C24.6938 86.4455 24.4877 86.5235 24.2723 86.5595C24.0569 86.5955 23.8366 86.5887 23.6239 86.5395C23.4111 86.4904 23.2102 86.3998 23.0324 86.2729C22.8547 86.1461 22.7037 85.9855 22.588 85.8003C22.4724 85.6151 22.3943 85.4089 22.3583 85.1935C22.3224 84.9782 22.3292 84.7578 22.3783 84.5451C22.4275 84.3324 22.5181 84.1314 22.6449 83.9537C22.7718 83.7759 22.9324 83.6249 23.1176 83.5093C23.4916 83.2757 23.9431 83.2003 24.3728 83.2996C24.8024 83.3989 25.175 83.6648 25.4086 84.0388C25.6422 84.4129 25.7176 84.8644 25.6183 85.294C25.519 85.7236 25.2531 86.0962 24.879 86.3298ZM24.9452 78.4481C25.3191 78.2146 25.7705 78.1391 26.2001 78.2382C26.6296 78.3373 27.0023 78.6029 27.2361 78.9767C27.4698 79.3506 27.5453 79.8021 27.4461 80.2318C27.3469 80.6615 27.0811 81.0341 26.7071 81.2678C26.3332 81.5015 25.8817 81.577 25.452 81.4779C25.0224 81.3787 24.6497 81.1128 24.416 80.7389C24.1825 80.3649 24.107 79.9135 24.2063 79.4839C24.3055 79.0543 24.5713 78.6817 24.9452 78.4481ZM27.592 85.4041C28.1775 84.5752 28.5831 83.6329 28.7826 82.6378C28.982 81.6427 28.971 80.6169 28.7501 79.6263C30.1128 81.0308 32.0539 81.6784 33.949 81.4318L27.592 85.4041ZM31.3342 79.1996C31.0179 79.3973 30.6359 79.4612 30.2725 79.3773C29.909 79.2934 29.5937 79.0685 29.396 78.7521C29.1984 78.4358 29.1344 78.0538 29.2184 77.6904C29.3023 77.3269 29.5271 77.0116 29.8435 76.8139C30.1599 76.6163 30.5418 76.5523 30.9053 76.6363C31.2688 76.7202 31.584 76.9451 31.7817 77.2614C31.9794 77.5778 32.0433 77.9597 31.9594 78.3232C31.8755 78.6867 31.6506 79.0019 31.3342 79.1996ZM28.4695 74.6151C28.3716 74.4585 28.3054 74.284 28.2749 74.1018C28.2444 73.9196 28.2501 73.7331 28.2917 73.5531C28.3333 73.3731 28.41 73.203 28.5173 73.0526C28.6247 72.9022 28.7606 72.7745 28.9174 72.6767C29.2337 72.479 29.6155 72.4151 29.979 72.499C30.3424 72.5829 30.6576 72.8078 30.8552 73.1241C31.0529 73.4404 31.1168 73.8223 31.0329 74.1857C30.949 74.5491 30.7242 74.8643 30.4078 75.062C30.2513 75.1601 30.0769 75.2263 29.8947 75.257C29.7125 75.2876 29.5261 75.282 29.346 75.2405C29.166 75.199 28.9959 75.1224 28.8455 75.0151C28.6951 74.9078 28.5673 74.7719 28.4695 74.6151ZM33.9235 79.2397C33.8256 79.0831 33.7595 78.9087 33.729 78.7265C33.6986 78.5443 33.7043 78.3578 33.7459 78.1779C33.7875 77.9979 33.8642 77.8279 33.9716 77.6775C34.0789 77.5272 34.2148 77.3995 34.3715 77.3017C34.6075 77.1543 34.8818 77.0803 35.1599 77.0889C35.438 77.0974 35.7072 77.1883 35.9337 77.3499C36.1601 77.5115 36.3335 77.7366 36.432 77.9968C36.5305 78.257 36.5496 78.5405 36.4869 78.8116C36.4243 79.0826 36.2826 79.329 36.0799 79.5195C35.8773 79.7101 35.6226 79.8363 35.3482 79.8821C35.0738 79.9279 34.792 79.8913 34.5384 79.777C34.2848 79.6627 34.0708 79.4757 33.9235 79.2397Z" fill="#B6B6B6" fill-opacity="0.35"/>
<defs>
<clipPath id="clip0_2_38">
<rect width="28.0826" height="28.0826" fill="white" transform="translate(62 89.8815) rotate(-32)"/>
</clipPath>
<clipPath id="clip1_2_38">
<rect width="29.7163" height="29.7163" fill="white" transform="translate(15.7473) rotate(32)"/>
</clipPath>
<clipPath id="clip2_2_38">
<rect width="32" height="32" fill="white" transform="translate(136.957 106) rotate(32)"/>
</clipPath>
<clipPath id="clip3_2_38">
<rect width="32" height="32" fill="white" transform="translate(120 27.2291) rotate(-44)"/>
</clipPath>
<clipPath id="clip4_2_38">
<rect width="30" height="29" fill="white" transform="translate(74.3425 118.198) rotate(12)"/>
</clipPath>
</defs>
</svg>
