<svg xmlns="http://www.w3.org/2000/svg" viewBox="0 0 64 64" id="hat">
  <path d="M58.255,39.341q.3-.38.577-.786A1,1,0,0,0,59,38V31A22.025,22.025,0,0,0,37,9H36a4,4,0,0,0-8,0H27A22.025,22.025,0,0,0,5,31v7a1,1,0,0,0,.168.555q.272.407.577.786L2.622,43.505A8.109,8.109,0,0,0,7.251,56.264,103.123,103.123,0,0,0,30.834,59h2.332a103.123,103.123,0,0,0,23.583-2.736A8.08,8.08,0,0,0,63,48.37,8.162,8.162,0,0,0,61.378,43.5ZM57,37.689a9.111,9.111,0,0,1-2,2.026V31.662a42.857,42.857,0,0,0-1.821-12.371A19.863,19.863,0,0,1,57,31ZM30,9a2,2,0,0,1,4,0H30Zm1,2v4h2V11h4a19.907,19.907,0,0,1,12.719,4.578A40.867,40.867,0,0,1,53,31.662V40.84c-.242.1-.489.188-.74.265A65.422,65.422,0,0,1,33,44H31A65.39,65.39,0,0,1,11.74,41.1c-.251-.077-.5-.166-.74-.264V31.662a40.867,40.867,0,0,1,3.281-16.084A19.907,19.907,0,0,1,27,11ZM7,31a19.863,19.863,0,0,1,3.821-11.709A42.857,42.857,0,0,0,9,31.662v8.053a9.111,9.111,0,0,1-2-2.026ZM56.291,54.316A101.057,101.057,0,0,1,33.166,57H30.834A101.057,101.057,0,0,1,7.709,54.316a6.108,6.108,0,0,1-3.487-9.611L7.154,40.8a11.132,11.132,0,0,0,4,2.221A67.375,67.375,0,0,0,31,46H33a67.407,67.407,0,0,0,19.844-2.983,11.149,11.149,0,0,0,4-2.222L59.778,44.7A6.15,6.15,0,0,1,61,48.37,6.085,6.085,0,0,1,56.291,54.316Z"></path>
  <path d="M15.2 24.6l5.29 7.054-1.432 4.01a1 1 0 00.5 1.231l4 2a1 1 0 001.389-.559l5-14a1 1 0 00-.5-1.231l-4-2a1 1 0 00-1.389.559l-.987 2.764L20.8 21.4a1 1 0 00-1.247-.295l-4 2a1 1 0 00-.353 1.5zm4.5-1.332l2.886 3.848a1 1 0 001.742-.263L25.562 23.4l2.2 1.1L23.438 36.6l-2.2-1.1 1.315-3.682a1 1 0 00-.142-.936l-4.894-6.526zM32 38h8a1 1 0 001-1V23a1 1 0 00-1-1H32a1 1 0 00-1 1V37A1 1 0 0032 38zm1-14h6V36H33z"></path>
  <rect width="2" height="8" x="35" y="26"></rect>
  <path d="M43.684 29.949l3 1A1.01 1.01 0 0047 31a1 1 0 001-.91l1-11a1 1 0 00-.753-1.06l-4-1A1 1 0 0043 18V29A1 1 0 0043.684 29.949zM45 19.281l1.927.481-.808 8.89L45 28.279zM43 38h4a1 1 0 001-1V33a1 1 0 00-1-1H43a1 1 0 00-1 1v4A1 1 0 0043 38zm1-4h2v2H44z"></path>
</svg>
