<svg xmlns="http://www.w3.org/2000/svg" enable-background="new 0 0 512 512" viewBox="0 0 512 512" id="rapper">
  <path d="M271 240.155c-4.418-3.314-10.687-2.418-14 2-3.504 4.672-10.498 4.669-14 0-3.313-4.417-9.581-5.313-14-2-4.418 3.313-5.314 9.582-2 14 11.512 15.349 34.494 15.342 46 0C276.314 249.737 275.418 243.469 271 240.155zM226 191c0-5.522-4.477-10-10-10s-10 4.478-10 10v10c0 5.522 4.477 10 10 10s10-4.478 10-10V191zM286 181c-5.523 0-10 4.478-10 10v10c0 5.522 4.477 10 10 10s10-4.478 10-10v-10C296 185.478 291.523 181 286 181z"></path>
  <path d="M396,101h-50v-5c0-52.383-42.617-95-95-95s-95,42.617-95,95v45h-10c-16.542,0-30,13.458-30,30s13.458,30,30,30h10v25
			c0,36.112,20.255,67.58,50,83.647c0,14.002,0,9.438,0,31.353h-60c-44.112,0-80,35.888-80,80v80c0,5.522,4.477,10,10,10h350
			c5.523,0,10-4.478,10-10v-80c0-44.112-35.888-80-80-80h-60c0-21.944,0-17.362,0-31.353c29.745-16.066,50-47.535,50-83.647v-25h10
			c20.688,0,35.18-20.546,28.28-40H436c5.523,0,10-4.478,10-10C446,123.43,423.57,101,396,101z M276,141h-50v-30
			c0-5.514,4.486-10,10-10h30c5.514,0,10,4.486,10,10V141z M146,181c-5.514,0-10-4.486-10-10s4.486-10,10-10h10v20H146z M86,421
			c0-33.084,26.916-60,60-60h67.604c6.298,9.39,16.037,16.278,27.396,18.866V491H136v-50c0-5.522-4.477-10-10-10s-10,4.478-10,10v50
			H86V421z M356,361c33.084,0,60,26.916,60,60v70h-30v-50c0-5.522-4.477-10-10-10s-10,4.478-10,10v50H261V379.866
			c11.358-2.589,21.098-9.476,27.396-18.866H356z M326,226c0,41.584-33.93,75-75,75c-41.355,0-75-33.645-75-75
			c0-6.821,0-58.243,0-65c15.978,0,133.891,0,150,0C326,167.757,326,219.179,326,226z M366,171c0,5.514-4.486,10-10,10h-10v-20h10
			C361.514,161,366,165.486,366,171z M346,141v-20h50c13.038,0,24.159,8.359,28.287,20C405.392,141,361.324,141,346,141z"></path>
  <path d="M306 421h50c5.523 0 10-4.478 10-10s-4.477-10-10-10h-50c-5.523 0-10 4.478-10 10S300.477 421 306 421zM146 421h50c5.523 0 10-4.478 10-10s-4.477-10-10-10h-50c-5.523 0-10 4.478-10 10S140.477 421 146 421z"></path>
</svg>
