<svg xmlns="http://www.w3.org/2000/svg" enable-background="new 0 0 512 512" viewBox="0 0 512 512" id="saxophone">
  <path d="M501,0.832H371c-22.056,0-40,17.944-40,40v51.72c-11.639,4.128-20,15.243-20,28.28s8.361,24.152,20,28.28v23.44
			c-11.639,4.128-20,15.243-20,28.28s8.361,24.152,20,28.28v23.44c-11.639,4.128-20,15.243-20,28.28
			c0,11.691,6.726,21.834,16.507,26.782c-9.642,30.951-38.071,52.846-70.651,53.209C215.028,361.333,181,327.531,181,285.832v-25
			c16.542,0,30-13.458,30-30s-13.458-30-30-30v-40c16.542,0,30-13.458,30-30s-13.458-30-30-30H31c-16.542,0-30,13.458-30,30
			s13.458,30,30,30v40c-16.542,0-30,13.458-30,30s13.458,30,30,30v58.39c0,166.725,202.633,257.639,324.353,135.96
			C391.237,419.286,411,371.572,411,320.832v-30h20v10c0,5.523,4.478,10,10,10s10-4.477,10-10c0-13.99,0-26.01,0-40
			c0-5.523-4.478-10-10-10s-10,4.477-10,10v10h-20v-60h20v10c0,5.523,4.478,10,10,10s10-4.477,10-10c0-13.99,0-26.01,0-40
			c0-5.523-4.478-10-10-10s-10,4.477-10,10v10h-20v-60h20v10c0,5.523,4.478,10,10,10s10-4.477,10-10c0-13.99,0-26.01,0-40
			c0-5.523-4.478-10-10-10s-10,4.477-10,10v10h-20v-20c0-11.028,8.972-20,20-20h20c33.152,0,60-26.855,60-60
			C511,5.309,506.522,0.832,501,0.832z M21,130.832c0-5.514,4.486-10,10-10h150c5.514,0,10,4.486,10,10s-4.486,10-10,10
			c-18.629,0-130.875,0-150,0C25.486,140.832,21,136.346,21,130.832z M161,160.832v40H51v-40H161z M31,240.832
			c-5.514,0-10-4.486-10-10s4.486-10,10-10h150c5.514,0,10,4.486,10,10s-4.486,10-10,10H31z M341,110.832c5.514,0,10,4.486,10,10
			s-4.486,10-10,10s-10-4.486-10-10S335.486,110.832,341,110.832z M341,190.832c5.514,0,10,4.486,10,10s-4.486,10-10,10
			s-10-4.486-10-10S335.486,190.832,341,190.832z M341,290.832c-5.514,0-10-4.486-10-10s4.486-10,10-10s10,4.486,10,10
			S346.514,290.832,341,290.832z M391,270.832h-21.72c-3.018-8.509-9.771-15.262-18.28-18.28v-23.44
			c8.509-3.018,15.262-9.771,18.28-18.28H391V270.832z M391,190.832h-21.72c-3.018-8.509-9.771-15.262-18.28-18.28v-23.44
			c8.509-3.018,15.262-9.771,18.28-18.28H391V190.832z M431,50.832c-22.056,0-40,17.944-40,40v20h-21.72
			c-3.018-8.509-9.771-15.262-18.28-18.28v-51.72c0-11.028,8.972-20,20-20h60V50.832z"></path>
</svg>
