<svg xmlns="http://www.w3.org/2000/svg" viewBox="0 0 64 64" id="violin">
  <path d="M14.73 48a7.55 7.55 0 0 0 2.06.32 3.6 3.6 0 0 0 2.46-.83c1.94-1.7 1.42-5.29 1-8.18A19.38 19.38 0 0 1 20 37a2.93 2.93 0 0 1 .76-2.18A3.43 3.43 0 0 1 23 34h0a1 1 0 0 0 0-2 5.46 5.46 0 0 0-3.65 1.38A4.83 4.83 0 0 0 18 37a19.93 19.93 0 0 0 .27 2.56c.31 2.15.78 5.4-.34 6.38-.61.53-1.78.34-2.65.09A1 1 0 1 0 14.73 48zM33 34a3.5 3.5 0 0 1 2.22.82A2.93 2.93 0 0 1 36 37a19.38 19.38 0 0 1-.25 2.28c-.42 2.89-.93 6.48 1 8.18a3.6 3.6 0 0 0 2.46.83A7.57 7.57 0 0 0 41.27 48 1 1 0 1 0 40.73 46c-.87.25-2 .44-2.65-.09-1.12-1-.65-4.23-.34-6.38A19.93 19.93 0 0 0 38 37a4.83 4.83 0 0 0-1.38-3.62A5.47 5.47 0 0 0 33 32 1 1 0 0 0 33 34z"></path>
  <path d="M48,43a6,6,0,0,1-6-6V31a6,6,0,0,1,5.58-6,1,1,0,0,0,.74-.41,1,1,0,0,0,.16-.84,17,17,0,0,0-15-12.71l-.35-7h-2l1,19H24l1-19h-2l-.35,7a17.08,17.08,0,0,0-15,12.71,1,1,0,0,0,.16.84,1,1,0,0,0,.75.41A6,6,0,0,1,14,31v6a6,6,0,0,1-6,6,1,1,0,0,0-1,1,16.9,16.9,0,0,0,3.16,9.84.76.76,0,0,0,.06.13,17.32,17.32,0,0,0,3,3.14l0,0c.41.33.83.65,1.27.95l0,0c.39.26.79.5,1.2.73l.37.2c.38.2.76.39,1.16.56l.46.19.93.34.52.16c.38.12.77.22,1.17.31l.46.09c.45.09.9.16,1.36.21l.32,0c.51,0,1,.08,1.54.08h8c.62,0,1.23,0,1.83-.1s1.1-.14,1.65-.25l.12,0A17,17,0,0,0,49,44,1,1,0,0,0,48,43ZM32,59H24a14.12,14.12,0,0,1-1.59-.09l-.35,0c-.41,0-.82-.12-1.22-.2l-.37-.1c-.39-.09-.77-.2-1.15-.32l-.38-.14c-.36-.13-.72-.27-1.07-.43l-.4-.18c-.33-.16-.65-.33-1-.52l-.43-.24c-.28-.18-.56-.38-.83-.58a4.73,4.73,0,0,1-.46-.32c-.25-.19-.48-.41-.72-.62a13.86,13.86,0,0,1-1-1l-.34-.36-.18-.23A11.08,11.08,0,0,1,19.84,52c2.78.46,6,2.68,9.09,4.83,1.06.74,2.14,1.48,3.22,2.17Zm-8.08-7.68V48h8.16v8.55c-.67-.45-1.35-.91-2-1.37A51.58,51.58,0,0,0,23.92,51.32Zm11.49,7.27c-.44-.23-.88-.48-1.33-.76V47a1,1,0,0,0-1-1H22.92a1,1,0,0,0-1,1v3.49A10.73,10.73,0,0,0,20.16,50a13.08,13.08,0,0,0-8.83,2A14.92,14.92,0,0,1,9,44.93,8,8,0,0,0,16,37V31a8,8,0,0,0-6.22-7.79A15.08,15.08,0,0,1,22.47,13.08L21.92,24a1,1,0,0,0,.28.74,1,1,0,0,0,.72.31H33.08a1,1,0,0,0,.72-.31,1,1,0,0,0,.28-.74l-.55-10.86a15,15,0,0,1,12.7,10.12A8,8,0,0,0,40,31v6a8,8,0,0,0,7,7.93A15,15,0,0,1,35.41,58.59Z"></path>
  <rect width="10" height="2" x="23" y="37"></rect>
  <polygon points="57 62 57 3 55 3 53 6 55 9 55 43 53 43 53 62 55 62 57 62"></polygon>
</svg>
